<svg xmlns="http://www.w3.org/2000/svg" viewBox="0 0 319.3 106.6" enable-background="new 0 0 319.3 106.6"><path fill="#AFB4B7" d="M101.1 73.3h2.2v10.2h5.2v2h-7.3V73.3zM116.8 84.3c-.3.5-.7.8-1.2 1-.5.2-1 .3-1.5.3-.4 0-.7-.1-1.1-.2-.4-.1-.7-.3-1-.5-.3-.2-.5-.5-.7-.8-.2-.3-.3-.7-.3-1.1 0-.4.1-.8.2-1.1.2-.3.4-.6.6-.8.3-.2.6-.4.9-.5.4-.1.7-.2 1.1-.3.4-.1.8-.1 1.2-.1h1.6V80c0-.5-.2-.9-.5-1.2-.4-.3-.8-.4-1.4-.4-.4 0-.8.1-1.2.2-.4.2-.7.4-1 .6l-1.1-1.1c.5-.5 1-.8 1.6-1 .6-.2 1.2-.3 1.9-.3.6 0 1.1.1 1.5.2.4.1.7.3 1 .5.3.2.5.4.6.7.1.3.2.5.3.8.1.3.1.5.1.8v5.4h-1.8v-.9zm-.1-2.5h-1.4c-.4 0-.7.1-1 .2-.3.1-.6.2-.8.4-.2.2-.3.4-.3.7 0 .2 0 .4.1.5l.3.3c.1.1.3.2.5.2s.3.1.5.1c.7 0 1.2-.2 1.6-.5.3-.3.5-.8.5-1.4v-.5zM130.3 85.5h-2v-1.3c-.2.4-.5.8-.9 1.1-.4.3-.9.5-1.6.5-.5 0-1-.1-1.4-.3-.4-.2-.7-.4-.9-.7-.2-.3-.4-.6-.5-1-.1-.4-.2-.8-.2-1.2v-5.2h2.1v5c0 .3.1.5.2.8.1.2.2.5.4.6.2.2.5.2.9.2.3 0 .6-.1.9-.2.2-.1.4-.3.6-.5.2-.2.3-.4.3-.7.1-.3.1-.5.1-.8v-4.5h2.1v8.2zM134.5 77.2h2v1.3c.2-.4.5-.8.9-1.1.4-.3.9-.5 1.6-.5.5 0 1 .1 1.4.3.4.2.7.4.9.7.2.3.4.6.5 1 .1.4.2.8.2 1.2v5.2h-2v-5c0-.3-.1-.5-.2-.8-.1-.2-.2-.5-.5-.6-.2-.2-.5-.2-.8-.2-.3 0-.6.1-.9.2-.2.1-.4.3-.6.5-.2.2-.3.4-.3.7-.1.3-.1.5-.1.8v4.5h-2.1v-8.2zM151.9 79.7c-.2-.2-.5-.5-.8-.6-.3-.1-.5-.2-.8-.2-.4 0-.7.1-1 .2-.3.1-.5.3-.8.5-.2.2-.4.5-.5.8-.1.3-.2.6-.2.9 0 .3.1.6.2.9.1.3.3.6.5.8.2.2.5.4.8.5.3.1.6.2 1 .2.3 0 .6-.1.9-.2.3-.1.5-.3.7-.6l1.4 1.5c-.2.2-.4.4-.7.5-.3.1-.5.3-.8.4-.3.1-.5.2-.8.2-.2 0-.5.1-.6.1-.6 0-1.2-.1-1.7-.3-.5-.2-1-.5-1.4-.9-.4-.4-.7-.8-1-1.4-.2-.5-.4-1.1-.4-1.8s.1-1.2.4-1.8c.2-.5.5-1 1-1.4.4-.4.9-.7 1.4-.9.5-.2 1.1-.3 1.7-.3.5 0 1.1.1 1.6.3.5.2 1 .5 1.4.9l-1.5 1.7zM158.5 78.4c.2-.3.5-.7.9-.9.4-.3.9-.4 1.6-.4.5 0 1 .1 1.4.3.4.2.7.4.9.7.2.3.4.6.5 1 .1.4.2.8.2 1.2v5.2h-2.1v-5c0-.3-.1-.5-.2-.8-.1-.2-.2-.5-.5-.6-.2-.2-.5-.2-.8-.2-.3 0-.6.1-.9.2-.2.1-.4.3-.6.5-.2.2-.3.4-.3.7-.1.3-.1.5-.1.8v4.5h-2.1V72.5h2.1v5.9zM169.9 82.1c.1.6.3 1.1.7 1.4.4.3.9.5 1.5.5.5 0 .9-.1 1.3-.3.3-.2.7-.5.9-.8l1.5 1.1c-.5.6-1 1-1.6 1.3-.6.2-1.2.4-1.9.4-.6 0-1.2-.1-1.7-.3-.5-.2-1-.5-1.4-.9-.4-.4-.7-.8-.9-1.4-.2-.5-.4-1.1-.4-1.8s.1-1.2.4-1.8c.2-.5.5-1 .9-1.4.4-.4.9-.7 1.4-.9.5-.2 1.1-.3 1.7-.3.6 0 1.1.1 1.6.3.5.2.9.5 1.2.9.3.4.6.8.8 1.4.2.6.3 1.2.3 1.9v.6h-6.3zm4.2-1.6c0-.6-.2-1.1-.6-1.4-.4-.3-.9-.5-1.5-.5s-1.1.2-1.5.5c-.4.4-.6.8-.7 1.4h4.3zM186.5 84.2c-.3.5-.7.9-1.2 1.1-.5.2-1 .3-1.6.3-.6 0-1.2-.1-1.7-.3-.5-.2-.9-.5-1.3-.9s-.6-.8-.8-1.4c-.2-.5-.3-1.1-.3-1.7 0-.6.1-1.2.3-1.7.2-.5.5-1 .8-1.4.3-.4.8-.7 1.3-.9.5-.2 1-.3 1.6-.3.4 0 .7 0 1 .1.3.1.6.2.8.3.2.1.4.3.6.4.2.1.3.3.4.4h.1v-5.8h2.1v12.9h-2v-1.1zm-4.9-2.8c0 .3.1.6.2.9.1.3.3.6.5.8.2.2.5.4.8.5.3.1.6.2 1 .2s.7-.1 1-.2c.3-.1.5-.3.8-.5.2-.2.4-.5.5-.8.1-.3.2-.6.2-.9 0-.3-.1-.6-.2-.9-.1-.3-.3-.6-.5-.8-.2-.2-.5-.4-.8-.5-.3-.1-.6-.2-1-.2s-.7.1-1 .2c-.3.1-.5.3-.8.5-.2.2-.4.5-.5.8-.1.2-.2.5-.2.9zM199.7 72.5h2.1v5.8h.1c.1-.1.2-.3.4-.4.2-.1.4-.3.6-.4.2-.1.5-.2.8-.3.3-.1.6-.1 1-.1.6 0 1.1.1 1.6.3.5.2.9.5 1.3.9.3.4.6.8.8 1.4.2.5.3 1.1.3 1.7 0 .6-.1 1.2-.3 1.7-.2.5-.5 1-.8 1.4-.4.4-.8.7-1.3.9-.5.2-1.1.3-1.7.3-.6 0-1.1-.1-1.6-.3-.5-.2-.9-.6-1.2-1.1v1.2h-2v-13zm6.8 8.9c0-.3-.1-.6-.2-.9-.1-.3-.3-.6-.5-.8-.2-.2-.5-.4-.8-.5-.3-.1-.6-.2-1-.2s-.7.1-1 .2c-.3.1-.6.3-.8.5-.2.2-.4.5-.5.8-.1.3-.2.6-.2.9 0 .3.1.6.2.9.1.3.3.6.5.8.2.2.5.4.8.5.3.1.6.2 1 .2s.7-.1 1-.2c.3-.1.6-.3.8-.5.2-.2.4-.5.5-.8.1-.3.2-.6.2-.9zM211.2 77.2h2.3l2.3 5.7 2.1-5.7h2.1l-3.9 10c-.1.4-.3.7-.5 1-.2.3-.4.5-.6.7-.2.2-.5.3-.8.4-.3.1-.7.1-1.2.1s-1.1-.1-1.6-.2l.3-1.8c.2.1.3.1.5.1s.4.1.5.1c.3 0 .5 0 .6-.1.2 0 .3-.1.4-.2.1-.1.2-.2.3-.4.1-.2.2-.3.3-.6l.4-1-3.5-8.1zM229.9 74.5c0-.3.1-.6.4-.9.2-.2.6-.4.9-.4.4 0 .7.1 1 .4.3.2.4.5.4.9s-.1.7-.4.9c-.3.2-.6.4-1 .4s-.7-.1-.9-.4c-.3-.3-.4-.6-.4-.9zm.3 2.7h2.1v8.2h-2.1v-8.2zM236.7 73.3h4.8c.8 0 1.6.1 2.3.4.7.2 1.4.6 2 1.1.6.5 1 1.1 1.4 1.9.3.8.5 1.7.5 2.7 0 1-.2 1.9-.6 2.7-.4.8-.9 1.4-1.5 1.9s-1.3.9-2.1 1.1c-.8.2-1.5.4-2.2.4h-4.5V73.3zm3.8 10.2c.7 0 1.3-.1 1.9-.2.6-.2 1.1-.4 1.6-.7.4-.3.8-.7 1.1-1.3.3-.5.4-1.1.4-1.9 0-.7-.1-1.4-.3-1.9-.2-.5-.5-.9-1-1.3-.4-.3-.9-.6-1.4-.7-.6-.2-1.2-.2-1.8-.2h-2v8.2h1.5zM261.1 75.3h-3.7v-2h9.6v2h-3.7v10.2h-2.2V75.3zM269.9 82.1c.1.6.3 1.1.7 1.4.4.3.9.5 1.5.5.5 0 .9-.1 1.3-.3.3-.2.7-.5.9-.8l1.5 1.1c-.5.6-1 1-1.6 1.3-.6.2-1.2.4-1.9.4-.6 0-1.2-.1-1.7-.3-.5-.2-1-.5-1.4-.9-.4-.4-.7-.8-1-1.4-.2-.5-.4-1.1-.4-1.8s.1-1.2.4-1.8c.2-.5.5-1 1-1.4.4-.4.9-.7 1.4-.9.5-.2 1.1-.3 1.7-.3.6 0 1.1.1 1.6.3.5.2.9.5 1.2.9.3.4.6.8.8 1.4.2.6.3 1.2.3 1.9v.6h-6.3zm4.2-1.6c0-.6-.2-1.1-.6-1.4-.4-.3-.9-.5-1.5-.5s-1.1.2-1.5.5c-.4.4-.6.8-.7 1.4h4.3zM285.6 79.7c-.2-.2-.5-.5-.8-.6-.3-.1-.5-.2-.8-.2-.4 0-.7.1-1 .2-.3.1-.6.3-.8.5-.2.2-.4.5-.5.8-.1.3-.2.6-.2.9 0 .3.1.6.2.9.1.3.3.6.5.8.2.2.5.4.8.5.3.1.6.2 1 .2.3 0 .6-.1.9-.2.3-.1.5-.3.7-.6l1.4 1.5c-.2.2-.4.4-.7.5-.3.1-.5.3-.8.4-.3.1-.5.2-.8.2-.2 0-.5.1-.6.1-.6 0-1.2-.1-1.7-.3-.5-.2-1-.5-1.4-.9-.4-.4-.7-.8-1-1.4-.2-.5-.3-1.1-.3-1.8s.1-1.2.3-1.8c.2-.5.6-1 1-1.4.4-.4.9-.7 1.4-.9.5-.2 1.1-.3 1.7-.3.5 0 1.1.1 1.6.3.5.2 1 .5 1.4.9l-1.5 1.7zM292.2 78.4c.2-.3.5-.7.9-.9.4-.3.9-.4 1.6-.4.5 0 1 .1 1.4.3.4.2.7.4.9.7.2.3.4.6.5 1 .1.4.2.8.2 1.2v5.2h-2.1v-5c0-.3-.1-.5-.2-.8-.1-.2-.2-.5-.5-.6-.2-.2-.5-.2-.8-.2-.3 0-.6.1-.9.2-.2.1-.4.3-.6.5-.2.2-.3.4-.3.7-.1.3-.1.5-.1.8v4.5h-2.1V72.5h2.1v5.9z"/><path fill="#94D70D" d="M100.8 41h-9.9v-3.9h24V41H105v26.9h-4.2V41zM112.9 59c0 .9.2 1.7.6 2.5.4.7.9 1.4 1.5 1.9s1.4.9 2.2 1.2c.8.3 1.7.4 2.6.4 1.2 0 2.3-.3 3.2-.8.9-.6 1.7-1.3 2.5-2.2l3 2.3c-2.2 2.8-5.2 4.2-9.1 4.2-1.6 0-3.1-.3-4.4-.8-1.3-.5-2.4-1.3-3.3-2.3-.9-1-1.6-2.1-2.1-3.4-.5-1.3-.7-2.7-.7-4.3 0-1.5.3-3 .8-4.3.5-1.3 1.3-2.5 2.2-3.4.9-1 2.1-1.7 3.4-2.3 1.3-.6 2.7-.8 4.3-.8 1.8 0 3.4.3 4.6 1 1.3.6 2.3 1.5 3.1 2.5.8 1 1.4 2.2 1.8 3.5.4 1.3.5 2.6.5 3.9V59h-16.7zm12.3-3.1c0-.9-.2-1.7-.4-2.4s-.6-1.4-1.1-1.9c-.5-.5-1.1-1-1.8-1.3-.7-.3-1.6-.5-2.6-.5s-1.8.2-2.6.5c-.8.4-1.5.8-2 1.4-.6.6-1 1.2-1.3 1.9-.3.7-.5 1.4-.5 2.1h12.3zM147.1 52.7c-.7-.8-1.5-1.3-2.3-1.7-.8-.4-1.7-.6-2.8-.6-1.1 0-2 .2-2.8.6-.8.4-1.5.9-2 1.6-.5.7-.9 1.5-1.2 2.3-.3.9-.4 1.8-.4 2.8 0 1 .2 1.9.5 2.7.3.9.8 1.6 1.3 2.2.6.6 1.3 1.1 2.1 1.5.8.4 1.7.5 2.7.5 1.1 0 2-.2 2.8-.6.8-.4 1.5-1 2.2-1.7l2.8 2.8c-1 1.1-2.2 1.9-3.5 2.4-1.3.5-2.8.7-4.3.7-1.6 0-3-.3-4.4-.8-1.3-.5-2.5-1.3-3.4-2.2-1-.9-1.7-2.1-2.2-3.4-.5-1.3-.8-2.8-.8-4.4 0-1.6.3-3.1.8-4.4.5-1.3 1.3-2.5 2.2-3.4.9-1 2.1-1.7 3.4-2.2 1.3-.5 2.8-.8 4.4-.8 1.5 0 2.9.3 4.3.8s2.6 1.4 3.6 2.5l-3 2.8zM152.5 35h3.9v15.4h.1c.5-1.1 1.3-2 2.6-2.7 1.2-.7 2.6-1 4.2-1 1 0 1.9.2 2.8.5.9.3 1.7.8 2.4 1.4.7.6 1.2 1.5 1.6 2.5.4 1 .6 2.2.6 3.5v13.3h-3.9V55.7c0-1-.1-1.8-.4-2.5-.3-.7-.6-1.2-1-1.7-.4-.4-.9-.7-1.5-.9-.6-.2-1.1-.3-1.8-.3-.8 0-1.6.1-2.3.4-.7.3-1.3.7-1.8 1.2-.5.6-.9 1.3-1.2 2.2-.3.9-.4 1.9-.4 3.1v10.6h-3.9V35z"/><path fill="#fff" d="M177.6 37.1h10.8c2 0 3.6.3 4.9.8 1.3.5 2.3 1.2 3 2 .7.8 1.3 1.8 1.5 2.8.3 1 .4 2 .4 3s-.2 1.9-.5 2.8c-.3.9-.8 1.7-1.5 2.5-.7.7-1.5 1.4-2.4 1.9-.9.5-2 .8-3.2.9l8.7 14h-5.2l-7.8-13.6h-4.6v13.6h-4.2V37.1zm4.2 13.5h5.5c.8 0 1.6-.1 2.4-.2.8-.1 1.5-.4 2.1-.7.6-.3 1.1-.8 1.5-1.5.4-.7.6-1.5.6-2.5s-.2-1.9-.6-2.5c-.4-.7-.9-1.2-1.5-1.5-.6-.3-1.3-.6-2.1-.7-.8-.1-1.6-.2-2.4-.2h-5.5v9.8zM198.7 57.6c0-1.5.3-2.9.8-4.2.6-1.3 1.3-2.4 2.3-3.4 1-1 2.1-1.8 3.5-2.3 1.3-.6 2.8-.8 4.3-.8s3 .3 4.3.8c1.3.6 2.5 1.3 3.5 2.3 1 1 1.8 2.1 2.3 3.4.6 1.3.8 2.7.8 4.2s-.3 2.9-.8 4.2c-.6 1.3-1.3 2.5-2.3 3.4-1 1-2.1 1.7-3.5 2.3-1.3.6-2.8.8-4.3.8s-3-.3-4.3-.8c-1.3-.6-2.5-1.3-3.5-2.3-1-1-1.8-2.1-2.3-3.4-.5-1.3-.8-2.7-.8-4.2zm4.2 0c0 1 .2 2 .5 2.9.3.9.8 1.6 1.3 2.3.6.6 1.3 1.1 2.1 1.5.8.4 1.8.5 2.8.5 1 0 2-.2 2.8-.5.8-.4 1.5-.9 2.1-1.5.6-.6 1-1.4 1.3-2.3s.5-1.8.5-2.9c0-1-.2-2-.5-2.9-.3-.9-.8-1.6-1.3-2.3-.6-.6-1.3-1.1-2.1-1.5-.8-.4-1.8-.5-2.8-.5-1 0-2 .2-2.8.5-.8.4-1.6.9-2.1 1.5-.6.6-1 1.4-1.3 2.3-.4.8-.5 1.8-.5 2.9zM265.9 59c0 .9.2 1.7.6 2.5.4.7.9 1.4 1.5 1.9s1.4.9 2.2 1.2c.8.3 1.7.4 2.6.4 1.2 0 2.3-.3 3.2-.8.9-.6 1.7-1.3 2.5-2.2l3 2.3c-2.2 2.8-5.2 4.2-9.1 4.2-1.6 0-3.1-.3-4.4-.8-1.3-.5-2.4-1.3-3.3-2.3-.9-1-1.6-2.1-2.1-3.4-.5-1.3-.7-2.7-.7-4.3 0-1.5.3-3 .8-4.3.5-1.3 1.3-2.5 2.2-3.4.9-1 2.1-1.7 3.4-2.3 1.3-.6 2.7-.8 4.3-.8 1.8 0 3.4.3 4.6 1 1.3.6 2.3 1.5 3.1 2.5.8 1 1.4 2.2 1.8 3.5.4 1.3.5 2.6.5 3.9V59h-16.7zm12.3-3.1c0-.9-.2-1.7-.4-2.4s-.6-1.4-1.1-1.9c-.5-.5-1.1-1-1.8-1.3-.7-.3-1.6-.5-2.6-.5s-1.8.2-2.6.5c-.8.4-1.5.8-2 1.4-.6.6-1 1.2-1.3 1.9-.3.7-.5 1.4-.5 2.1h12.3zM297.3 50.6h-5.6v11.1c0 .6.1 1.1.3 1.5.2.5.5.8.9 1.1s1 .4 1.7.4c.5 0 .9 0 1.4-.1.5-.1.9-.2 1.3-.5v3.6c-.5.3-1.1.4-1.8.5-.7.1-1.3.2-1.7.2-1.5 0-2.7-.2-3.5-.6-.8-.4-1.4-1-1.8-1.6-.4-.7-.6-1.4-.7-2.2-.1-.8-.1-1.7-.1-2.5V50.6h-4.5v-3.4h4.5v-5.8h3.9v5.8h5.6v3.4zM257.3 67.9h5.6l-6-6.4-4.8-5.1 9.7-8.8.3-.3h-5.4l-18.1 15.1s-1.4 1.3-2.2 1.7c-.8.4-1.7.6-2.8.6-1 0-1.9-.1-2.7-.4-.8-.4-1.5-.9-2.1-1.5-.6-.6-1-1.4-1.3-2.2-.3-.9-.5-1.8-.5-2.7 0-1 .1-1.9.4-2.8.3-.9.7-1.7 1.2-2.3.5-.7 1.2-1.2 2-1.6.8-.4 1.7-.6 2.8-.6 1.1 0 2.1.2 2.8.6.8.4 1.6 1 2.3 1.7l3-2.7c-1-1.1-2.2-1.9-3.6-2.5-1.4-.5-2.8-.8-4.3-.8-1.6 0-3.1.3-4.4.8-1.3.5-2.4 1.3-3.4 2.2-.9 1-1.7 2.1-2.2 3.4-.5 1.3-.8 2.8-.8 4.4 0 1.6.3 3 .8 4.4.5 1.3 1.3 2.4 2.2 3.4 1 .9 2.1 1.7 3.4 2.2 1.3.5 2.8.8 4.4.8 1.5 0 2.9-.2 4.3-.7.9-.3 1.7-.8 2.5-1.4l3.5-3.1V68h3.9v-8.1l1.3-1.1 8.2 9.1zM247.8 35h-4v19.8l4-3.2zM70.9 31.4L75 19.8l-11.8 3.9c-6-4.4-13.5-7-21.5-7C21.5 16.7 5.2 33 5.2 53.2s16.3 36.5 36.5 36.5 36.5-16.3 36.5-36.5c.1-8.2-2.7-15.7-7.3-21.8z"/><path fill="#94D500" d="M73.5 31c1.8-4.5 3.3-9.1 4.4-13.8-4.7 1.1-9.4 2.6-13.8 4.4C49 11 27.9 12.4 14.4 25.9-.8 41-.8 65.6 14.3 80.7c15.1 15.1 39.7 15.1 54.8 0 13.6-13.5 15-34.6 4.4-49.7zM63 26.2c1.5-.7 2.9-1.3 4.4-1.9 1.7-.7 3.4-1.3 5.2-1.8-.5 1.7-1.1 3.5-1.8 5.2-.6 1.5-1.2 3-1.9 4.4l-1.2 2.4c-3.2 6.2-7.4 12-12.6 17.2L44.2 62.5c.9-.2 4.2-1.2 10.6-6.2L53 61.6l-5 15.2-3.7-6.5-2.9-5h-.1c-2.7 1.6-6.6.8-9.5-2.1-2.9-2.9-3.7-6.9-2.1-9.5l-5-2.9-6.5-3.7 15.2-5 5.4-1.8c-5 6.3-6 9.7-6.2 10.6L43.4 40c5.2-5.2 11-9.4 17.2-12.6.8-.5 1.6-.9 2.4-1.2zM37.6 70s-2.4 1.5-6.1 3c-1.6.6-2.9 1.1-3.8 1.4-1.2.4-1.8.5-1.8.5l1.3-1.1 5.9-5.1c1.5.7 3.1 1.2 4.5 1.3zm-11.1-8l-5.1 5.9-1.1 1.3s.2-.6.5-1.8c.3-.9.7-2.2 1.4-3.8 1.4-3.7 3-6.1 3-6.1 0 1.3.4 2.9 1.3 4.5zm39.6 15.7c-13.5 13.5-35.3 13.5-48.8 0s-13.5-35.3 0-48.8c11.4-11.4 28.7-13.1 42-5.3-.9.4-1.8.8-2.6 1.3-12.1-6.4-27.4-4.5-37.6 5.7-12 12-12.5 31-1.6 43.6l5.4-4.8 5.4-4.9c.3.4.7.8 1 1.2.4.4.8.7 1.2 1l-4.9 5.4-4.8 5.4c12.6 10.9 31.7 10.4 43.6-1.6 10.2-10.2 12.1-25.5 5.7-37.6.4-.9.9-1.8 1.3-2.6 7.9 13.2 6.1 30.6-5.3 42zM33.3 61.8c.3.3.7.6 1 .8l12.4-13.7c.6-.6.7-1.1.8-1.2-.2 0-.6.2-1.2.8L32.4 60.8c.3.3.5.7.9 1z"/><circle fill="#94D500" cx="55.7" cy="39.3" r="3.3"/></svg>