<svg id="Layer_1" xmlns="http://www.w3.org/2000/svg" xmlns:xlink="http://www.w3.org/1999/xlink" viewBox="0 0 512 512"><style>.st0{fill:#38464e}.st1{fill:#c0bfbf}.st2{fill:#e8e8e8}.st3{fill:#f1f0f0}.st4{fill:#cfd0d0}.st5{fill:#465761}.st6{fill:#99ca3c}.st7{fill:#8ac640}.st8{clip-path:url(#SVGID_2_);fill:#f5f6f6}.st9{clip-path:url(#SVGID_4_);fill:#989898}.st10{clip-path:url(#SVGID_6_);fill:#f5f6f6}.st11{clip-path:url(#SVGID_8_);fill:#989898}.st12{clip-path:url(#SVGID_10_);fill:#f5f6f6}.st13{clip-path:url(#SVGID_12_);fill:#989898}.st14{clip-path:url(#SVGID_14_);fill:#f5f6f6}.st15{fill:#333}.st16{fill:#dfdfdf}</style><path class="st0" d="M318 422L284 63.2c-.4-4.2-2.4-8-5.6-10.7-3.2-2.7-7.3-3.9-11.5-3.5L14.2 72.9c-4.2.4-8 2.4-10.7 5.6C.9 81.7-.4 85.8.1 90l34 358.9c.4 4.2 2.4 8 5.6 10.7 2.8 2.3 6.3 3.6 9.9 3.6.5 0 1 0 1.5-.1l252.7-23.9c4.2-.4 8-2.4 10.7-5.6 2.6-3.4 3.8-7.5 3.5-11.6z"/><path class="st1" d="M512 325.6c0 34.3-30.5 62.1-68.1 62.1h-1.5c-37.6 0-68.1-27.8-68.1-62.1v-118c0-34.3 30.5-62.1 68.1-62.1h1.5c37.6 0 68.1 27.8 68.1 62.1v118z"/><path class="st2" d="M449.9 286.3c-26.1 10.2-52.2 14.6-75.8 14.2v21.7c0 34.3 30.5 62.1 68.1 62.1h1.5c37.6 0 68.1-27.8 68.1-62.1v-89c-15.3 23.4-36.2 43.1-61.9 53.1z"/><path class="st2" d="M449.9 286.3c25.8-10.1 46.7-29.7 62.1-53.1v-28.9c0-34.3-30.5-62.1-68.1-62.1h-1.5c-37.6 0-68.1 27.8-68.1 62.1v96.4c23.5.2 49.5-4.3 75.6-14.4z"/><path class="st3" d="M449.8 284.8c25.2-9.8 45.6-29.1 60.7-51.9v-28.3c0-33.5-29.9-60.7-66.6-60.7h-1.5c-36.7 0-66.6 27.2-66.6 60.7v94.2c23.1.3 48.6-4.1 74-14z"/><path class="st4" d="M452.4 209.1c0 4.5-4.2 8-9.3 8-5.2 0-9.3-3.6-9.3-8v-27.7c0-4.5 4.2-8 9.3-8 5.2 0 9.3 3.6 9.3 8v27.7z"/><path class="st5" d="M305.5 435.8L46.9 460c-5.2.5-9.7-3.3-10.2-8.5s3.3-9.7 8.5-10.2l267.2-25s-10.6 1.2-11.8 11c.2 3.9 10.1 7.9 4.9 8.5zm9.9-13.6c.7 7.2-4.7 13.7-11.8 14.3L50.9 460.4c-7.2.7-13.7-4.7-14.3-11.8L2.6 89.8c-.7-7.2 4.7-13.7 11.8-14.3l252.7-23.9c7.2-.7 13.7 4.7 14.3 11.8l34 358.8z"/><path class="st6" d="M18.3 254.7l279-26.2 10.4 111.1-279 26.2-10.4-111.1z"/><path class="st7" d="M44.6 341.3L229 324l.4 4.1-184.5 17.2-.3-4zm-1.4-13.1l184.4-17.3.4 4.1-184.4 17.3-.4-4.1z"/><defs><path id="SVGID_1_" d="M328.5 424.7c.4 4.4-2.8 8.2-7.2 8.5l-273 25.6c-4.4.4-8.2-2.8-8.5-7.2-.4-4.4 2.8-8.2 7.2-8.5l273-25.6c4.4-.4-8.8 4.4-8.3 8.8l16.8-1.6z"/></defs><clipPath id="SVGID_2_"><use xlink:href="#SVGID_1_" overflow="visible"/></clipPath><path class="st8" d="M312.3 420c.7 7.2-4.6 13.7-11.8 14.3L48.7 458.1c-7.2.7-13.7-4.6-14.3-11.8l-31-327.5c-.7-7.2 4.6-13.5 11.8-14.2l251.9-23.8c7.2-.7 13.7 4.6 14.3 11.8L312.3 420z"/><defs><path id="SVGID_3_" d="M328.5 424.7c.4 4.4-2.8 8.2-7.2 8.5l-273 25.6c-4.4.4-8.2-2.8-8.5-7.2-.4-4.4 2.8-8.2 7.2-8.5l273-25.6c4.4-.4-8.8 4.4-8.3 8.8l16.8-1.6z"/></defs><clipPath id="SVGID_4_"><use xlink:href="#SVGID_3_" overflow="visible"/></clipPath><path class="st9" d="M312.1 417.6c.7 7.2-4.6 13.7-11.8 14.3L48.5 455.7c-7.2.7-13.7-4.6-14.3-11.8l-31-327.4c-.7-7.2 4.6-13.7 11.8-14.3l251.9-23.8c7.2-.7 13.7 4.6 14.3 11.8l30.9 327.4z"/><defs><path id="SVGID_5_" d="M328.5 424.7c.4 4.4-2.8 8.2-7.2 8.5l-273 25.6c-4.4.4-8.2-2.8-8.5-7.2-.4-4.4 2.8-8.2 7.2-8.5l273-25.6c4.4-.4-8.8 4.4-8.3 8.8l16.8-1.6z"/></defs><clipPath id="SVGID_6_"><use xlink:href="#SVGID_5_" overflow="visible"/></clipPath><path class="st10" d="M312 416.3c.7 7.2-4.6 13.7-11.8 14.3L48.3 454.4c-7.2.7-13.7-4.6-14.3-11.8L3.1 115c-.7-7.2 4.6-13.7 11.8-14.3l251.9-23.8c7.2-.7 13.7 4.6 14.3 11.8L312 416.3z"/><g><defs><path id="SVGID_7_" d="M328.5 424.7c.4 4.4-2.8 8.2-7.2 8.5l-273 25.6c-4.4.4-8.2-2.8-8.5-7.2-.4-4.4 2.8-8.2 7.2-8.5l273-25.6c4.4-.4-8.8 4.4-8.3 8.8l16.8-1.6z"/></defs><clipPath id="SVGID_8_"><use xlink:href="#SVGID_7_" overflow="visible"/></clipPath><path class="st11" d="M311.8 414.3c.7 7.2-4.6 13.7-11.8 14.3L48.1 452.4c-7.2.7-13.7-4.6-14.3-11.8L2.9 113c-.7-7.2 4.6-13.7 11.8-14.3l251.9-23.8c7.2-.7 13.7 4.6 14.3 11.8l30.9 327.6z"/></g><g><defs><path id="SVGID_9_" d="M328.5 424.7c.4 4.4-2.8 8.2-7.2 8.5l-273 25.6c-4.4.4-8.2-2.8-8.5-7.2-.4-4.4 2.8-8.2 7.2-8.5l273-25.6c4.4-.4-8.8 4.4-8.3 8.8l16.8-1.6z"/></defs><clipPath id="SVGID_10_"><use xlink:href="#SVGID_9_" overflow="visible"/></clipPath><path class="st12" d="M311.6 412.9c.7 7.2-4.6 13.7-11.8 14.3L48 451c-7.2.7-13.7-4.6-14.3-11.8L2.8 111.7c-.8-7.1 4.6-13.6 11.8-14.3l251.9-23.8c7.2-.7 13.7 4.6 14.3 11.8l30.8 327.5z"/></g><g><defs><path id="SVGID_11_" d="M328.5 424.7c.4 4.4-2.8 8.2-7.2 8.5l-273 25.6c-4.4.4-8.2-2.8-8.5-7.2-.4-4.4 2.8-8.2 7.2-8.5l273-25.6c4.4-.4-8.8 4.4-8.3 8.8l16.8-1.6z"/></defs><clipPath id="SVGID_12_"><use xlink:href="#SVGID_11_" overflow="visible"/></clipPath><path class="st13" d="M311.4 410.5c.7 7.2-4.6 13.7-11.8 14.3L47.8 448.5c-7.2.7-13.7-4.6-14.3-11.8L2.6 109.3c-.7-7.2 4.6-13.7 11.8-14.3l251.9-23.7c7.2-.7 13.7 4.6 14.3 11.8l30.8 327.4z"/></g><g><defs><path id="SVGID_13_" d="M328.5 424.7c.4 4.4-2.8 8.2-7.2 8.5l-273 25.6c-4.4.4-8.2-2.8-8.5-7.2-.4-4.4 2.8-8.2 7.2-8.5l273-25.6c4.4-.4-8.8 4.4-8.3 8.8l16.8-1.6z"/></defs><clipPath id="SVGID_14_"><use xlink:href="#SVGID_13_" overflow="visible"/></clipPath><path class="st14" d="M311.3 409.1c.7 7.2-4.6 13.7-11.8 14.3L47.7 447.2c-7.2.7-13.7-4.6-14.3-11.8L2.4 108c-.7-7.1 4.6-13.6 11.8-14.3l251.9-23.8c7.2-.7 13.7 4.6 14.3 11.8l30.9 327.4z"/></g><path class="st15" d="M281.4 435.5c.3 2.8-1.8 5.3-4.6 5.5l-12.9 1.2c-2.8.3-5.3-1.8-5.5-4.6L223 58.9c-.3-2.8 1.8-5.3 4.6-5.5l12.9-1.2c2.8-.3 5.3 1.8 5.5 4.6l35.4 378.7z"/><path class="st16" d="M452.4 206.1c0 4.5-4.2 8-9.3 8-5.2 0-9.3-3.6-9.3-8v-27.7c0-4.5 4.2-8 9.3-8 5.2 0 9.3 3.6 9.3 8v27.7z"/></svg>